<?xml version="1.0" standalone="no"?>
<!DOCTYPE svg PUBLIC "-//W3C//DTD SVG 20010904//EN"
 "http://www.w3.org/TR/2001/REC-SVG-20010904/DTD/svg10.dtd">
<svg version="1.0" xmlns="http://www.w3.org/2000/svg"
 width="478.000000pt" height="562.000000pt" viewBox="0 0 478.000000 562.000000"
 preserveAspectRatio="xMidYMid meet">

<g transform="translate(0.000000,562.000000) scale(0.100000,-0.100000)"
fill="#222222" stroke="none">
<path d="M440 2830 l0 -2370 1928 2 1927 3 3 2368 2 2367 -1930 0 -1930 0 0
-2370z m2386 1793 c-3 -93 -9 -216 -13 -275 l-6 -108 -557 0 -557 0 -7 -147
c-28 -562 -33 -678 -30 -682 1 -1 35 24 74 58 137 118 243 153 465 153 168 0
254 -17 374 -74 149 -71 261 -208 321 -393 64 -201 65 -215 65 -825 0 -497 -2
-566 -19 -660 -78 -446 -282 -683 -656 -763 -127 -27 -428 -29 -567 -3 -420
77 -654 293 -718 663 -10 57 -15 153 -15 284 l0 199 320 0 c249 0 320 -3 320
-12 0 -7 1 -96 3 -198 3 -160 7 -193 25 -240 29 -73 68 -119 133 -155 51 -28
61 -30 164 -30 100 0 115 2 160 27 87 46 130 109 162 235 16 60 18 131 18 613
0 492 -2 551 -18 602 -23 76 -71 137 -137 173 -50 28 -63 30 -150 30 -81 -1
-103 -5 -152 -27 -74 -34 -144 -105 -188 -190 l-35 -68 -278 0 -277 0 5 38 c2
20 7 111 10 202 3 91 8 224 11 295 14 311 21 618 23 1009 1 230 4 423 7 427 3
5 393 9 866 9 l861 0 -7 -167z m964 -131 l0 -297 -145 -218 -145 -217 -176 0
c-137 0 -175 3 -171 13 3 6 49 103 101 214 53 111 96 204 96 207 0 3 -58 6
-130 6 l-130 0 0 295 0 295 350 0 350 0 0 -298z m-659 -877 c6 -6 99 -12 216
-15 l206 -5 -178 -140 -177 -140 146 -3 c155 -3 182 3 189 40 2 13 5 -11 5
-52 1 -52 -2 -68 -8 -54 -5 12 -14 25 -21 29 -6 5 -88 8 -180 8 -184 0 -192
-3 -208 -57 -8 -26 -9 -21 -10 34 l0 65 154 120 c85 65 153 121 150 123 -7 7
-278 3 -286 -5 -4 -4 -9 -17 -12 -28 -3 -11 -5 14 -5 55 0 41 2 66 5 55 3 -11
9 -24 14 -30z m316 -461 c131 -76 137 -256 12 -340 -81 -54 -188 -54 -267 0
-60 41 -87 93 -87 172 0 92 47 155 143 190 53 20 144 10 199 -22z m-315 -461
c8 -10 59 -13 193 -13 190 0 197 1 208 45 2 11 5 -20 6 -70 1 -79 -1 -87 -12
-65 l-13 25 -183 3 c-192 3 -206 0 -214 -41 -2 -12 -4 21 -4 73 -1 52 2 86 4
75 3 -11 10 -26 15 -32z m0 -200 c8 -10 59 -13 193 -13 190 0 197 1 208 45 2
11 5 -23 5 -75 0 -52 -2 -86 -5 -75 -8 36 -33 45 -120 45 l-83 0 0 -100 0
-100 83 0 c90 0 101 4 116 40 7 19 10 2 9 -70 0 -52 -3 -86 -5 -75 -11 44 -18
45 -208 45 -190 0 -197 -1 -208 -45 -2 -11 -5 23 -5 75 0 52 2 86 5 75 8 -35
33 -45 115 -45 l78 0 0 100 0 100 -77 0 c-86 0 -98 -4 -112 -40 -7 -19 -10 -2
-9 70 0 52 3 86 5 75 3 -11 10 -26 15 -32z m367 -462 c47 -30 61 -101 39 -189
-9 -35 -9 -47 0 -50 7 -2 12 -8 12 -13 0 -12 -137 -12 -144 0 -3 5 7 11 24 14
50 11 91 56 97 109 5 40 2 50 -20 72 -52 52 -88 34 -158 -80 -29 -47 -64 -94
-77 -105 -69 -54 -172 12 -172 109 0 13 5 43 12 65 10 32 10 41 0 45 -7 2 -12
8 -12 13 0 5 34 9 75 9 43 0 75 -4 75 -10 0 -5 -9 -10 -20 -10 -55 0 -110 -57
-110 -115 0 -31 41 -75 70 -75 28 0 49 24 105 118 48 81 72 105 110 114 27 7
65 -2 94 -21z m40 -388 c0 -63 -3 -82 -9 -65 -11 26 -30 28 -87 6 l-43 -17 0
-81 0 -82 48 -17 c62 -23 69 -22 80 11 9 23 11 16 11 -42 1 -67 1 -68 -17 -46
-11 13 -96 54 -215 103 -109 45 -199 86 -200 91 -1 6 85 45 192 88 191 76 231
98 231 125 0 7 2 13 5 13 3 0 5 -39 4 -87z m-355 -403 c-38 -15 -54 -50 -54
-117 l0 -63 90 0 90 0 0 48 c0 49 -13 71 -50 85 -8 3 19 5 60 6 59 0 70 -2 50
-10 -33 -14 -40 -26 -40 -81 l0 -48 89 0 c91 0 104 5 114 45 2 11 5 -23 5 -75
0 -52 -2 -86 -5 -75 -10 41 -29 45 -214 45 -184 0 -191 -2 -202 -45 -2 -11 -5
51 -6 138 l-1 157 48 -1 c36 0 42 -2 26 -9z"/>
<path d="M3215 3097 c-98 -38 -126 -122 -64 -191 37 -43 79 -56 179 -56 124 1
200 50 200 131 0 45 -37 95 -87 115 -40 17 -186 17 -228 1z"/>
<path d="M3293 1526 c-46 -17 -83 -33 -83 -36 0 -7 161 -72 167 -67 2 3 3 34
1 69 l-3 65 -82 -31z"/>
</g>
</svg>
